<?xml version="1.0" standalone="no"?>
<!DOCTYPE svg PUBLIC "-//W3C//DTD SVG 20010904//EN"
 "http://www.w3.org/TR/2001/REC-SVG-20010904/DTD/svg10.dtd">
<svg version="1.0" xmlns="http://www.w3.org/2000/svg"
 width="32.000000pt" height="30.000000pt" viewBox="0 0 32.000000 30.000000"
 preserveAspectRatio="xMidYMid meet">

<g transform="translate(0.000000,30.000000) scale(0.100000,-0.100000)"
fill="#000000" stroke="none">
<path d="M55 259 c-61 -54 -70 -140 -17 -168 18 -9 18 -8 8 29 -6 26 -7 49 0
67 11 33 67 73 102 73 21 0 22 2 12 15 -21 25 -66 18 -105 -16z"/>
<path d="M200 280 c0 -5 7 -10 16 -10 8 0 12 5 9 10 -3 6 -10 10 -16 10 -5 0
-9 -4 -9 -10z"/>
<path d="M240 242 c0 -7 7 -24 16 -37 8 -13 14 -34 12 -47 -3 -22 -8 -23 -85
-26 -46 -2 -83 -6 -83 -11 0 -4 9 -16 20 -26 15 -14 29 -16 65 -11 61 10 63
-16 3 -37 -54 -17 -58 -42 -7 -41 71 2 129 66 129 142 0 30 -7 45 -35 72 -19
19 -35 28 -35 22z"/>
<path d="M112 208 c-26 -26 -13 -38 43 -38 38 0 55 4 55 13 0 22 -22 37 -55
37 -17 0 -36 -5 -43 -12z"/>
<path d="M100 40 c0 -5 5 -10 11 -10 5 0 7 5 4 10 -3 6 -8 10 -11 10 -2 0 -4
-4 -4 -10z"/>
</g>
</svg>
