<?xml version="1.0" standalone="no"?>
<!DOCTYPE svg PUBLIC "-//W3C//DTD SVG 20010904//EN"
 "http://www.w3.org/TR/2001/REC-SVG-20010904/DTD/svg10.dtd">
<svg version="1.0" xmlns="http://www.w3.org/2000/svg"
 width="466.000000pt" height="334.000000pt" viewBox="0 0 466.000000 334.000000"
 preserveAspectRatio="xMidYMid meet">
<metadata>
Created by potrace 1.16, written by Peter Selinger 2001-2019
</metadata>
<g transform="translate(0.000000,334.000000) scale(0.100000,-0.100000)"
fill="#000000" stroke="none">
<path d="M147 3296 c-21 -8 -47 -22 -59 -33 -50 -46 -48 35 -48 -1566 l0
-1494 23 -33 c12 -19 38 -43 57 -54 l35 -21 2155 0 2155 0 35 21 c19 11 45 35
57 54 l23 33 0 1497 0 1497 -23 33 c-12 19 -38 43 -57 54 -35 21 -36 21 -2175
23 -1787 2 -2146 0 -2178 -11z m743 -1596 l0 -1280 -265 0 -265 0 0 1280 0
1280 265 0 265 0 0 -1280z m830 0 l0 -1280 -255 0 -255 0 0 1280 0 1280 255 0
255 0 0 -1280z m810 0 l0 -1280 -240 0 -240 0 0 1280 0 1280 240 0 240 0 0
-1280z m840 0 l0 -1280 -260 0 -260 0 0 1280 0 1280 260 0 260 0 0 -1280z
m890 0 l0 -1280 -285 0 -285 0 0 1280 0 1280 285 0 285 0 0 -1280z"/>
</g>
</svg>
